<svg width="84" height="44" viewBox="0 0 84 44" fill="none" xmlns="http://www.w3.org/2000/svg">
<g filter="url(#filter0_d_190_504)">
<path d="M5.61719 23.7012V23.2969C5.61719 21.9258 5.81641 20.6543 6.21484 19.4824C6.61328 18.2988 7.1875 17.2734 7.9375 16.4062C8.6875 15.5273 9.5957 14.8477 10.6621 14.3672C11.7285 13.875 12.9238 13.6289 14.248 13.6289C15.584 13.6289 16.7852 13.875 17.8516 14.3672C18.9297 14.8477 19.8438 15.5273 20.5938 16.4062C21.3555 17.2734 21.9355 18.2988 22.334 19.4824C22.7324 20.6543 22.9316 21.9258 22.9316 23.2969V23.7012C22.9316 25.0723 22.7324 26.3438 22.334 27.5156C21.9355 28.6875 21.3555 29.7129 20.5938 30.5918C19.8438 31.459 18.9355 32.1387 17.8691 32.6309C16.8145 33.1113 15.6191 33.3516 14.2832 33.3516C12.9473 33.3516 11.7461 33.1113 10.6797 32.6309C9.61328 32.1387 8.69922 31.459 7.9375 30.5918C7.1875 29.7129 6.61328 28.6875 6.21484 27.5156C5.81641 26.3438 5.61719 25.0723 5.61719 23.7012ZM8.86914 23.2969V23.7012C8.86914 24.6504 8.98047 25.5469 9.20312 26.3906C9.42578 27.2227 9.75977 27.9609 10.2051 28.6055C10.6621 29.25 11.2305 29.7598 11.9102 30.1348C12.5898 30.498 13.3809 30.6797 14.2832 30.6797C15.1738 30.6797 15.9531 30.498 16.6211 30.1348C17.3008 29.7598 17.8633 29.25 18.3086 28.6055C18.7539 27.9609 19.0879 27.2227 19.3105 26.3906C19.5449 25.5469 19.6621 24.6504 19.6621 23.7012V23.2969C19.6621 22.3594 19.5449 21.4746 19.3105 20.6426C19.0879 19.7988 18.748 19.0547 18.291 18.4102C17.8457 17.7539 17.2832 17.2383 16.6035 16.8633C15.9355 16.4883 15.1504 16.3008 14.248 16.3008C13.3574 16.3008 12.5723 16.4883 11.8926 16.8633C11.2246 17.2383 10.6621 17.7539 10.2051 18.4102C9.75977 19.0547 9.42578 19.7988 9.20312 20.6426C8.98047 21.4746 8.86914 22.3594 8.86914 23.2969ZM30.2617 17.6367V40.3125H26.9922V13.9805H29.9805L30.2617 17.6367ZM43.0762 23.332V23.7012C43.0762 25.084 42.9121 26.3672 42.584 27.5508C42.2559 28.7227 41.7754 29.7422 41.1426 30.6094C40.5215 31.4766 39.7539 32.1504 38.8398 32.6309C37.9258 33.1113 36.877 33.3516 35.6934 33.3516C34.4863 33.3516 33.4199 33.1523 32.4941 32.7539C31.5684 32.3555 30.7832 31.7754 30.1387 31.0137C29.4941 30.252 28.9785 29.3379 28.5918 28.2715C28.2168 27.2051 27.959 26.0039 27.8184 24.668V22.6992C27.959 21.293 28.2227 20.0332 28.6094 18.9199C28.9961 17.8066 29.5059 16.8574 30.1387 16.0723C30.7832 15.2754 31.5625 14.6719 32.4766 14.2617C33.3906 13.8398 34.4453 13.6289 35.6406 13.6289C36.8359 13.6289 37.8965 13.8633 38.8223 14.332C39.748 14.7891 40.5273 15.4453 41.1602 16.3008C41.793 17.1562 42.2676 18.1816 42.584 19.377C42.9121 20.5605 43.0762 21.8789 43.0762 23.332ZM39.8066 23.7012V23.332C39.8066 22.3828 39.707 21.4922 39.5078 20.6602C39.3086 19.8164 38.998 19.0781 38.5762 18.4453C38.166 17.8008 37.6387 17.2969 36.9941 16.9336C36.3496 16.5586 35.582 16.3711 34.6914 16.3711C33.8711 16.3711 33.1562 16.5117 32.5469 16.793C31.9492 17.0742 31.4395 17.4551 31.0176 17.9355C30.5957 18.4043 30.25 18.9434 29.9805 19.5527C29.7227 20.1504 29.5293 20.7715 29.4004 21.416V25.9688C29.6348 26.7891 29.9629 27.5625 30.3848 28.2891C30.8066 29.0039 31.3691 29.584 32.0723 30.0293C32.7754 30.4629 33.6602 30.6797 34.7266 30.6797C35.6055 30.6797 36.3613 30.498 36.9941 30.1348C37.6387 29.7598 38.166 29.25 38.5762 28.6055C38.998 27.9609 39.3086 27.2227 39.5078 26.3906C39.707 25.5469 39.8066 24.6504 39.8066 23.7012ZM55.1172 33.3516C53.793 33.3516 52.5918 33.1289 51.5137 32.6836C50.4473 32.2266 49.5273 31.5879 48.7539 30.7676C47.9922 29.9473 47.4062 28.9746 46.9961 27.8496C46.5859 26.7246 46.3809 25.4941 46.3809 24.1582V23.4199C46.3809 21.873 46.6094 20.4961 47.0664 19.2891C47.5234 18.0703 48.1445 17.0391 48.9297 16.1953C49.7148 15.3516 50.6055 14.7129 51.6016 14.2793C52.5977 13.8457 53.6289 13.6289 54.6953 13.6289C56.0547 13.6289 57.2266 13.8633 58.2109 14.332C59.207 14.8008 60.0215 15.457 60.6543 16.3008C61.2871 17.1328 61.7559 18.1172 62.0605 19.2539C62.3652 20.3789 62.5176 21.6094 62.5176 22.9453V24.4043H48.3145V21.75H59.2656V21.5039C59.2188 20.6602 59.043 19.8398 58.7383 19.043C58.4453 18.2461 57.9766 17.5898 57.332 17.0742C56.6875 16.5586 55.8086 16.3008 54.6953 16.3008C53.957 16.3008 53.2773 16.459 52.6562 16.7754C52.0352 17.0801 51.502 17.5371 51.0566 18.1465C50.6113 18.7559 50.2656 19.5 50.0195 20.3789C49.7734 21.2578 49.6504 22.2715 49.6504 23.4199V24.1582C49.6504 25.0605 49.7734 25.9102 50.0195 26.707C50.2773 27.4922 50.6465 28.1836 51.127 28.7812C51.6191 29.3789 52.2109 29.8477 52.9023 30.1875C53.6055 30.5273 54.4023 30.6973 55.293 30.6973C56.4414 30.6973 57.4141 30.4629 58.2109 29.9941C59.0078 29.5254 59.7051 28.8984 60.3027 28.1133L62.2715 29.6777C61.8613 30.2988 61.3398 30.8906 60.707 31.4531C60.0742 32.0156 59.2949 32.4727 58.3691 32.8242C57.4551 33.1758 56.3711 33.3516 55.1172 33.3516ZM69.5664 18.041V33H66.3145V13.9805H69.3906L69.5664 18.041ZM68.793 22.7695L67.4395 22.7168C67.4512 21.416 67.6445 20.2148 68.0195 19.1133C68.3945 18 68.9219 17.0332 69.6016 16.2129C70.2812 15.3926 71.0898 14.7598 72.0273 14.3145C72.9766 13.8574 74.0254 13.6289 75.1738 13.6289C76.1113 13.6289 76.9551 13.7578 77.7051 14.0156C78.4551 14.2617 79.0938 14.6602 79.6211 15.2109C80.1602 15.7617 80.5703 16.4766 80.8516 17.3555C81.1328 18.2227 81.2734 19.2832 81.2734 20.5371V33H78.0039V20.502C78.0039 19.5059 77.8574 18.709 77.5645 18.1113C77.2715 17.502 76.8438 17.0625 76.2812 16.793C75.7188 16.5117 75.0273 16.3711 74.207 16.3711C73.3984 16.3711 72.6602 16.541 71.9922 16.8809C71.3359 17.2207 70.7676 17.6895 70.2871 18.2871C69.8184 18.8848 69.4492 19.5703 69.1797 20.3438C68.9219 21.1055 68.793 21.9141 68.793 22.7695Z" fill="white"/>
<circle cx="13" cy="23" r="11" fill="#FFB800"/>
</g>
<defs>
<filter id="filter0_d_190_504" x="0" y="11" width="83.2734" height="32.3125" filterUnits="userSpaceOnUse" color-interpolation-filters="sRGB">
<feFlood flood-opacity="0" result="BackgroundImageFix"/>
<feColorMatrix in="SourceAlpha" type="matrix" values="0 0 0 0 0 0 0 0 0 0 0 0 0 0 0 0 0 0 127 0" result="hardAlpha"/>
<feOffset dy="1"/>
<feGaussianBlur stdDeviation="1"/>
<feColorMatrix type="matrix" values="0 0 0 0 0 0 0 0 0 0 0 0 0 0 0 0 0 0 0.1 0"/>
<feBlend mode="normal" in2="BackgroundImageFix" result="effect1_dropShadow_190_504"/>
<feBlend mode="normal" in="SourceGraphic" in2="effect1_dropShadow_190_504" result="shape"/>
</filter>
</defs>
</svg>
